<svg width="60" height="42" viewBox="0 0 60 42" fill="none" xmlns="http://www.w3.org/2000/svg">
<path d="M57.5 30C57.5 30.7479 57.1313 31.7134 55.9247 32.8546C54.7127 34.0007 52.8249 35.148 50.2847 36.1641C45.2183 38.1907 38.0476 39.5 30 39.5C21.9524 39.5 14.7817 38.1907 9.71527 36.1641C7.17512 35.148 5.28726 34.0007 4.07532 32.8546C2.86866 31.7134 2.5 30.7479 2.5 30C2.5 29.2521 2.86866 28.2866 4.07532 27.1454C5.28726 25.9993 7.17512 24.852 9.71527 23.8359C14.7817 21.8093 21.9524 20.5 30 20.5C38.0476 20.5 45.2183 21.8093 50.2847 23.8359C52.8249 24.852 54.7127 25.9993 55.9247 27.1454C57.1313 28.2866 57.5 29.2521 57.5 30Z" stroke="white" stroke-width="5"/>
<path d="M20 30C23.0435 -5.58505 37.5652 -6.4126 40 30" stroke="white" stroke-width="5"/>
</svg>
